<?xml version="1.0" encoding="UTF-8"?>
<svg width="89px" height="101px" viewBox="0 0 89 101" version="1.1" xmlns="http://www.w3.org/2000/svg" xmlns:xlink="http://www.w3.org/1999/xlink">
    <!-- Generator: Sketch 52.1 (67048) - http://www.bohemiancoding.com/sketch -->
    <title>Group</title>
    <desc>Created with Sketch.</desc>
    <g id="Page-1" stroke="none" stroke-width="1" fill="none" fill-rule="evenodd">
        <g id="iPhone-XS-Max-Copy-26" transform="translate(-162.000000, -265.000000)">
            <g id="Group" transform="translate(162.000000, 265.000000)">
                <ellipse id="Oval" fill="#DFDBD4" cx="44.5" cy="92" rx="44.5" ry="9"></ellipse>
                <g id="mapa" transform="translate(10.000000, 0.000000)">
                    <path d="M34.5,0 C15.4765397,0 0,15.7974492 0,35.2151697 C0,41.909338 1.78457117,49.0115553 5.30478311,56.3243995 C8.09018419,62.1115517 11.9659429,68.0487188 16.8237285,73.9711657 C25.0654047,84.0186958 33.1808019,90.4693336 33.5224601,90.7392737 C33.8104872,90.9667853 34.1551367,91.08 34.5,91.08 C34.8448633,91.08 35.1897265,90.9663524 35.4775399,90.7392737 C35.8189844,90.4693336 43.9343817,84.0186958 52.1762715,73.9711657 C57.0342708,68.0487188 60.9100295,62.1115517 63.6952169,56.3243995 C67.2154288,49.0113389 69,41.909338 69,35.2151697 C69,15.7974492 53.5234603,0 34.5,0 Z M34.5,21.8199061 C41.7476837,21.8199061 47.6231792,27.8172522 47.6231792,35.2151697 C47.6231792,42.6130873 41.7476837,48.6104334 34.5,48.6104334 C27.2523163,48.6104334 21.3768208,42.6130873 21.3768208,35.2151697 C21.3768208,27.8172522 27.2523163,21.8199061 34.5,21.8199061 Z" id="Shape" fill="#E30027" fill-rule="nonzero"></path>
                    <path d="M34.6322125,0 C33.5013277,0 32.383214,0.0580145313 31.28,0.167765902 C48.66323,1.8999759 62.2957879,16.9562621 62.2957879,35.2152534 C62.2957879,41.9094376 60.5180446,49.0116718 57.0113013,56.3245334 C54.2365573,62.1116993 50.3756276,68.0488805 45.5364282,73.9713415 C39.9056308,80.8622989 34.3348577,86.0604442 31.28,88.7340915 C32.6795045,89.9588908 33.5515608,90.6546323 33.6581999,90.7392729 C33.9451249,90.9667851 34.2884559,91.08 34.6319996,91.08 C34.9755434,91.08 35.3190872,90.9663521 35.6057994,90.7392729 C35.9459375,90.4693321 44.0302846,84.0186791 52.2406404,73.9711251 C57.0800526,68.048664 60.9409823,62.1114829 63.7155134,56.3243169 C67.2222567,49.0112389 69,41.9092212 69,35.215037 C69.0002129,15.7974868 53.5828876,0 34.6322125,0 Z" id="Path" fill="#CC012C"></path>
                </g>
            </g>
        </g>
    </g>
</svg>