<?xml version="1.0" encoding="UTF-8"?>
<svg width="90px" height="90px" viewBox="0 0 90 90" version="1.1" xmlns="http://www.w3.org/2000/svg" xmlns:xlink="http://www.w3.org/1999/xlink">
    <!-- Generator: Sketch 52.1 (67048) - http://www.bohemiancoding.com/sketch -->
    <title>Group 14</title>
    <desc>Created with Sketch.</desc>
    <g id="Page-1" stroke="none" stroke-width="1" fill="none" fill-rule="evenodd">
        <g id="iPhone-XS-Max-Copy-29" transform="translate(-161.000000, -254.000000)">
            <g id="Group-14" transform="translate(161.000000, 254.000000)">
                <g id="language" transform="translate(2.910448, 0.000000)">
                    <g id="Group" transform="translate(0.015742, 0.157416)">
                        <path d="M46.8003848,0.169524837 L12.256952,0.169524837 C5.49649604,0.169524837 0.0162138526,5.64998717 0.0162138526,12.4102629 L0.0162138526,32.9849213 C0.0162138526,39.7453772 5.49649604,45.2256594 12.256952,45.2256594 L12.3000087,45.2256594 L12.3000087,55.1327833 C12.3000087,58.4928341 13.6957084,58.055716 16.491517,56.1918435 L33.3803591,45.2256594 L46.8003848,45.2256594 C53.5608407,45.2256594 59.0411229,39.7451971 59.0411229,32.9849213 L59.0411229,12.4102629 C59.0411229,5.64998717 53.5608407,0.169524837 46.8003848,0.169524837 Z" id="Path" fill="#E8E1D4"></path>
                        <path d="M16.4197685,45.2251189 L12.2562313,45.2251189 C5.49649604,45.2251189 0.0160336987,39.7446566 0.0160336987,32.9851014 L0.0160336987,12.4102629 C0.0160336987,5.65052764 5.49649604,0.170065299 12.2562313,0.170065299 L16.4197685,0.170065299 C9.66003323,0.170065299 4.1795709,5.65052764 4.1795709,12.4102629 L4.1795709,32.9851014 C4.1795709,39.7448368 9.66003323,45.2251189 16.4197685,45.2251189 Z" id="Path" fill="#C7B29B"></path>
                    </g>
                    <g id="Group" transform="translate(27.759445, 31.324044)">
                        <path d="M12.3706291,0.0954815765 L46.9142421,0.0954815765 C53.674698,0.0954815765 59.1549802,5.57594391 59.1549802,12.3362197 L59.1549802,32.910878 C59.1549802,39.671334 53.6745178,45.1516161 46.9142421,45.1516161 L46.8711853,45.1516161 L46.8711853,55.6719333 C46.8711853,59.031984 46.1267613,59.4707113 43.3309527,57.6068389 L25.7908349,45.1517963 L12.3708092,45.1517963 C5.61035331,45.1517963 0.130071129,39.671334 0.130071129,32.9110582 L0.130071129,12.3362197 C0.129890975,5.57576376 5.61035331,0.0954815765 12.3706291,0.0954815765 Z" id="Path" fill="#F0D56E"></path>
                        <path d="M16.5334457,45.1510757 L12.3699085,45.1510757 C5.61017316,45.1510757 0.129710821,39.6706133 0.129710821,32.9110582 L0.129710821,12.3362197 C0.129710821,5.57648438 5.61017316,0.0960220382 12.3699085,0.0960220382 L16.5334457,0.0960220382 C9.77371035,0.0960220382 4.29324802,5.57648438 4.29324802,12.3362197 L4.29324802,32.9110582 C4.29342817,39.6707935 9.77371035,45.1510757 16.5334457,45.1510757 Z" id="Path" fill="#D5A445"></path>
                    </g>
                    <path d="M80.8050455,10.8454075 C77.3087984,5.70093225 72.1736911,1.95391091 66.1414173,0.194347598 C63.6821362,-0.523025303 61.1070161,0.889201259 60.3896432,3.34848239 C59.6722703,5.80776353 61.0844969,8.38288363 63.543778,9.10025653 C66.0565648,9.83330282 68.3304676,11.0945604 70.2424411,12.7817018 L66.8865147,13.3082148 C64.5018173,13.7452682 65.6811276,15.2850979 67.2520697,17.1316756 C73.1451936,24.2843144 76.6153428,28.4760996 77.6625175,29.7070313 C79.2332795,31.5534288 80.5850268,31.511675 81.3989622,29.2282241 L86.1828201,13.9208256 C86.9967555,11.6368342 87.426092,9.93753848 85.0413946,10.3745919 L80.8050455,10.8454075 Z" id="Path" fill="#E8E1D4"></path>
                    <g id="Group" transform="translate(14.968517, 19.974347)">
                        <g transform="translate(26.302472, 31.526936)" fill="#D5A445" id="Oval">
                            <circle cx="4.10516733" cy="4.00590252" r="3.95401819"></circle>
                            <circle cx="16.1309818" cy="4.00590252" r="3.95401819"></circle>
                            <circle cx="28.1566161" cy="4.00590252" r="3.95401819"></circle>
                        </g>
                        <g fill="#C7B29B" id="Oval">
                            <circle cx="4.10426656" cy="4.03544776" r="3.95401819"></circle>
                            <circle cx="16.1299009" cy="4.03544776" r="3.95401819"></circle>
                            <circle cx="28.1557154" cy="4.03544776" r="3.95401819"></circle>
                        </g>
                    </g>
                </g>
                <path d="M20.6021782,66.1363433 C17.1059311,60.991868 11.9708238,57.2448467 5.93855004,55.4852834 C3.47926891,54.7679105 0.904148807,56.180137 0.186775906,58.6394182 C-0.530596996,61.0986993 0.881629567,63.6738194 3.3409107,64.3911923 C5.85369755,65.1242386 8.1276003,66.3854962 10.0395738,68.0726376 L6.68364741,68.5991506 C4.29895,69.036204 5.47826028,70.5760337 7.04920244,72.4226114 C12.9423263,79.5752501 16.4124755,83.7670354 17.4596502,84.997967 C19.0304122,86.8443645 20.3821595,86.8026108 21.1960949,84.5191599 L25.9799528,69.2117613 C26.7938882,66.92777 27.2232247,65.2284742 24.8385273,65.6655277 L20.6021782,66.1363433 Z" id="Path" fill="#F0D56E" transform="translate(13.312019, 70.805963) scale(-1, -1) translate(-13.312019, -70.805963) "></path>
            </g>
        </g>
    </g>
</svg>