<?xml version="1.0" encoding="UTF-8"?>
<svg width="120px" height="186px" viewBox="0 0 120 186" version="1.1" xmlns="http://www.w3.org/2000/svg" xmlns:xlink="http://www.w3.org/1999/xlink">
    <!-- Generator: Sketch 52.1 (67048) - http://www.bohemiancoding.com/sketch -->
    <title>Group 5</title>
    <desc>Created with Sketch.</desc>
    <g id="Page-1" stroke="none" stroke-width="1" fill="none" fill-rule="evenodd">
        <g id="iPhone-XS-Max" transform="translate(-146.000000, -137.000000)">
            <g id="Group-5" transform="translate(146.000000, 137.000000)">
                <g id="Group-4">
                    <path d="M8.2,153.36 L8.2,144.33 L4,132 L7.24,132 L9.7,140.49 L9.76,140.49 L12.22,132 L15.46,132 L11.26,144.33 L11.26,153.36 L8.2,153.36 Z M22.02,145.89 L20.52,138.15 L20.46,138.15 L18.96,145.89 L22.02,145.89 Z M14.46,153.36 L19.23,132 L21.78,132 L26.55,153.36 L23.49,153.36 L22.59,148.77 L18.42,148.77 L17.52,153.36 L14.46,153.36 Z M28.43,153.36 L28.43,132 L31.37,132 L35.99,144.87 L36.05,144.87 L36.05,132 L39.11,132 L39.11,153.36 L36.23,153.36 L31.55,140.52 L31.49,140.52 L31.49,153.36 L28.43,153.36 Z M48.55,145.89 L47.05,138.15 L46.99,138.15 L45.49,145.89 L48.55,145.89 Z M40.99,153.36 L45.76,132 L48.31,132 L53.08,153.36 L50.02,153.36 L49.12,148.77 L44.95,148.77 L44.05,153.36 L40.99,153.36 Z M55.08,153.36 L55.08,132 L59.67,132 C60.5100042,132 61.2499968,132.109999 61.89,132.33 C62.5300032,132.550001 63.1099974,132.939997 63.63,133.5 C64.1500026,134.060003 64.509999,134.714996 64.71,135.465 C64.910001,136.215004 65.01,137.229994 65.01,138.51 C65.01,139.470005 64.9550006,140.279997 64.845,140.94 C64.7349995,141.600003 64.5000018,142.219997 64.14,142.8 C63.7199979,143.500003 63.1600035,144.044998 62.46,144.435 C61.7599965,144.825002 60.8400057,145.02 59.7,145.02 L58.14,145.02 L58.14,153.36 L55.08,153.36 Z M58.14,134.88 L58.14,142.14 L59.61,142.14 C60.2300031,142.14 60.7099983,142.050001 61.05,141.87 C61.3900017,141.689999 61.6399992,141.440002 61.8,141.12 C61.9600008,140.819998 62.0549999,140.450002 62.085,140.01 C62.1150002,139.569998 62.13,139.080003 62.13,138.54 C62.13,138.039998 62.1200001,137.565002 62.1,137.115 C62.0799999,136.664998 61.9900008,136.270002 61.83,135.93 C61.6699992,135.589998 61.4300016,135.330001 61.11,135.15 C60.7899984,134.969999 60.330003,134.88 59.73,134.88 L58.14,134.88 Z M72.86,145.89 L71.36,138.15 L71.3,138.15 L69.8,145.89 L72.86,145.89 Z M65.3,153.36 L70.07,132 L72.62,132 L77.39,153.36 L74.33,153.36 L73.43,148.77 L69.26,148.77 L68.36,153.36 L65.3,153.36 Z M79.39,153.36 L79.39,132 L82.45,132 L82.45,141.75 L82.51,141.75 L86.98,132 L90.04,132 L85.87,140.55 L90.82,153.36 L87.58,153.36 L84.1,143.88 L82.45,146.97 L82.45,153.36 L79.39,153.36 Z M102.57,132 L102.57,148.56 C102.57,149.260004 102.445001,149.904997 102.195,150.495 C101.944999,151.085003 101.590002,151.609998 101.13,152.07 C100.669998,152.530002 100.140003,152.889999 99.54,153.15 C98.939997,153.410001 98.3000034,153.54 97.62,153.54 C96.9399966,153.54 96.305003,153.410001 95.715,153.15 C95.1249971,152.889999 94.6000023,152.530002 94.14,152.07 C93.6799977,151.609998 93.3200013,151.085003 93.06,150.495 C92.7999987,149.904997 92.67,149.260004 92.67,148.56 L92.67,132 L95.73,132 L95.73,148.26 C95.73,149.020004 95.9099982,149.579998 96.27,149.94 C96.6300018,150.300002 97.0799973,150.48 97.62,150.48 C98.1600027,150.48 98.6099982,150.300002 98.97,149.94 C99.3300018,149.579998 99.51,149.020004 99.51,148.26 L99.51,132 L102.57,132 Z M105.83,153.36 L105.83,132 L108.77,132 L113.39,144.87 L113.45,144.87 L113.45,132 L116.51,132 L116.51,153.36 L113.63,153.36 L108.95,140.52 L108.89,140.52 L108.89,153.36 L105.83,153.36 Z" id="YANAPAKUN" fill="#E30027"></path>
                    <g id="alarma" transform="translate(0.000000, 0.000000)">
                        <g id="Group-10" transform="translate(15.180723, 36.867470)">
                            <g id="Group-8">
                                <g id="Group-7" transform="translate(6.951807, 0.000000)">
                                    <path d="M22.8123381,0 L52.9226016,2.5682267e-15 C60.0634145,1.25648067e-15 66.1346799,5.21331507 67.2142511,12.2720496 L74.7349398,61.4457831 L1,61.4457831 L8.52068865,12.2720496 C9.60025983,5.21331507 15.6715253,3.8799728e-15 22.8123381,0 Z" id="Rectangle" fill="#E30027" transform="translate(37.867470, 30.722892) scale(-1, 1) translate(-37.867470, -30.722892) "></path>
                                    <path d="M62.3754809,3.53625226 C64.5113686,5.38184146 66.1093571,7.85071243 66.8774377,10.6921209 L74.7349398,61.4636725 L0.762977692,60.224327 C31.2610246,52.4222437 51.7985256,33.5262187 62.3754809,3.53625226 Z" id="Combined-Shape" fill="#CC012C"></path>
                                </g>
                                <path d="M8.6746988,61.4457831 L80.9638554,61.4457831 C85.7547593,61.4457831 89.6385542,65.3295781 89.6385542,70.1204819 L89.6385542,80.9638554 L0,80.9638554 L0,70.1204819 C-5.86716507e-16,65.3295781 3.88379494,61.4457831 8.6746988,61.4457831 Z" id="Rectangle" fill="#3A413D"></path>
                                <path d="M8.6746988,59.2771084 L80.9638554,59.2771084 C82.5608234,59.2771084 83.8554217,60.5717067 83.8554217,62.1686747 L5.78313253,62.1686747 C5.78313253,60.5717067 7.07773084,59.2771084 8.6746988,59.2771084 Z" id="Rectangle-Copy-15" fill="#5E6662"></path>
                            </g>
                            <path d="M23.6271401,18.0722892 C22.5560431,18.0722892 21.686747,17.202993 21.686747,16.131896 C21.686747,10.424553 26.3281674,5.78313253 32.0355105,5.78313253 C33.1066075,5.78313253 33.9759036,6.65242867 33.9759036,7.72352566 C33.9759036,8.79462267 33.1066075,9.66391887 32.0355105,9.66391887 C28.4677743,9.66391887 25.5675333,12.566747 25.5675333,16.131896 C25.5675333,17.202993 24.6982371,18.0722892 23.6271401,18.0722892 Z" id="Path" fill="#FF2755"></path>
                        </g>
                        <g id="Group-9" fill="#CC012C">
                            <path d="M59.6385542,15.1807229 C58.2419277,15.1807229 57.1084337,14.1605783 57.1084337,12.9036145 L57.1084337,2.27710843 C57.1084337,1.02014458 58.2419277,0 59.6385542,0 C61.0351807,0 62.1686747,1.02014458 62.1686747,2.27710843 L62.1686747,12.9036145 C62.1686747,14.1605783 61.0351807,15.1807229 59.6385542,15.1807229 Z" id="Path"></path>
                            <path d="M112.409639,57.8313253 C111.013012,57.8313253 109.879518,56.8111807 109.879518,55.5542169 L109.879518,44.9277108 C109.879518,43.670747 111.013012,42.6506024 112.409639,42.6506024 C113.806265,42.6506024 114.939759,43.670747 114.939759,44.9277108 L114.939759,55.5542169 C114.939759,56.8111807 113.806265,57.8313253 112.409639,57.8313253 Z" id="Path" transform="translate(112.409639, 50.240964) rotate(90.000000) translate(-112.409639, -50.240964) "></path>
                            <path d="M7.59036145,57.8313253 C6.19373494,57.8313253 5.06024096,56.8111807 5.06024096,55.5542169 L5.06024096,44.9277108 C5.06024096,43.670747 6.19373494,42.6506024 7.59036145,42.6506024 C8.98698795,42.6506024 10.1204819,43.670747 10.1204819,44.9277108 L10.1204819,55.5542169 C10.1204819,56.8111807 8.98698795,57.8313253 7.59036145,57.8313253 Z" id="Path-Copy" transform="translate(7.590361, 50.240964) rotate(90.000000) translate(-7.590361, -50.240964) "></path>
                            <path d="M92.6790904,24.5783133 C92.0855754,24.5783133 91.4920605,24.3526681 91.0407419,23.898287 C90.1350137,22.9926156 90.1350137,21.5243771 91.0407419,20.6187057 L98.691519,12.9684101 C99.5972472,12.0627388 101.065578,12.0627388 101.971306,12.9684101 C102.877034,13.8740815 102.877034,15.34232 101.971306,16.2479914 L94.3174381,23.898287 C93.8661195,24.3526681 93.2726053,24.5783133 92.6790904,24.5783133 Z" id="Path"></path>
                            <path d="M26.5974351,24.5783133 C26.0037711,24.5783133 25.4101069,24.3526681 24.9586748,23.898287 L17.3059732,16.2479914 C16.4000169,15.34232 16.4000169,13.8740815 17.3059732,12.9684101 C18.2119294,12.0627388 19.6806297,12.0627388 20.5865859,12.9684101 L28.2361955,20.6217967 C29.1421517,21.5274681 29.1421517,22.9957066 28.2361955,23.901378 C27.7847634,24.3526681 27.1910993,24.5783133 26.5974351,24.5783133 Z" id="Path"></path>
                        </g>
                    </g>
                </g>
                <path d="M23,185.55 L23,164.19 L27.59,164.19 C28.4300042,164.19 29.1699968,164.299999 29.81,164.52 C30.4500032,164.740001 31.0299974,165.129997 31.55,165.69 C32.0700026,166.250003 32.429999,166.904996 32.63,167.655 C32.830001,168.405004 32.93,169.419994 32.93,170.7 C32.93,171.660005 32.8750006,172.469997 32.765,173.13 C32.6549994,173.790003 32.4200018,174.409997 32.06,174.99 C31.6399979,175.690003 31.0800035,176.234998 30.38,176.625 C29.6799965,177.015002 28.7600057,177.21 27.62,177.21 L26.06,177.21 L26.06,185.55 L23,185.55 Z M26.06,167.07 L26.06,174.33 L27.53,174.33 C28.1500031,174.33 28.6299983,174.240001 28.97,174.06 C29.3100017,173.879999 29.5599992,173.630002 29.72,173.31 C29.8800008,173.009998 29.9749999,172.640002 30.005,172.2 C30.0350002,171.759998 30.05,171.270003 30.05,170.73 C30.05,170.229997 30.0400001,169.755002 30.02,169.305 C29.9999999,168.854998 29.9100008,168.460002 29.75,168.12 C29.5899992,167.779998 29.3500016,167.520001 29.03,167.34 C28.7099984,167.159999 28.250003,167.07 27.65,167.07 L26.06,167.07 Z M35.43,169.23 C35.43,168.369996 35.5799985,167.610003 35.88,166.95 C36.1800015,166.289997 36.5799975,165.740002 37.08,165.3 C37.5600024,164.879998 38.104997,164.560001 38.715,164.34 C39.3250031,164.119999 39.9399969,164.01 40.56,164.01 C41.1800031,164.01 41.794997,164.119999 42.405,164.34 C43.0150031,164.560001 43.5699975,164.879998 44.07,165.3 C44.5500024,165.740002 44.9399985,166.289997 45.24,166.95 C45.5400015,167.610003 45.69,168.369996 45.69,169.23 L45.69,180.51 C45.69,181.410004 45.5400015,182.179997 45.24,182.82 C44.9399985,183.460003 44.5500024,183.989998 44.07,184.41 C43.5699975,184.850002 43.0150031,185.179999 42.405,185.4 C41.794997,185.620001 41.1800031,185.73 40.56,185.73 C39.9399969,185.73 39.3250031,185.620001 38.715,185.4 C38.104997,185.179999 37.5600024,184.850002 37.08,184.41 C36.5799975,183.989998 36.1800015,183.460003 35.88,182.82 C35.5799985,182.179997 35.43,181.410004 35.43,180.51 L35.43,169.23 Z M38.49,180.51 C38.49,181.250004 38.694998,181.794998 39.105,182.145 C39.5150021,182.495002 39.9999972,182.67 40.56,182.67 C41.1200028,182.67 41.604998,182.495002 42.015,182.145 C42.4250021,181.794998 42.63,181.250004 42.63,180.51 L42.63,169.23 C42.63,168.489996 42.4250021,167.945002 42.015,167.595 C41.604998,167.244998 41.1200028,167.07 40.56,167.07 C39.9999972,167.07 39.5150021,167.244998 39.105,167.595 C38.694998,167.945002 38.49,168.489996 38.49,169.23 L38.49,180.51 Z M48.79,185.55 L48.79,164.19 L51.85,164.19 L51.85,182.49 L57.91,182.49 L57.91,185.55 L48.79,185.55 Z M60.38,185.55 L60.38,164.19 L63.44,164.19 L63.44,185.55 L60.38,185.55 Z M76.53,179.46 L76.53,180.78 C76.53,181.440003 76.4050013,182.064997 76.155,182.655 C75.9049988,183.245003 75.5600022,183.769998 75.12,184.23 C74.6799978,184.690002 74.165003,185.054999 73.575,185.325 C72.9849971,185.595001 72.3500034,185.73 71.67,185.73 C71.0899971,185.73 70.500003,185.650001 69.9,185.49 C69.299997,185.329999 68.7600024,185.050002 68.28,184.65 C67.7999976,184.249998 67.4050016,183.735003 67.095,183.105 C66.7849985,182.474997 66.63,181.670005 66.63,180.69 L66.63,168.93 C66.63,168.229996 66.7499988,167.580003 66.99,166.98 C67.2300012,166.379997 67.5699978,165.860002 68.01,165.42 C68.4500022,164.979998 68.974997,164.635001 69.585,164.385 C70.1950031,164.134999 70.8699963,164.01 71.61,164.01 C73.0500072,164.01 74.2199955,164.479995 75.12,165.42 C75.5600022,165.880002 75.9049988,166.424997 76.155,167.055 C76.4050013,167.685003 76.53,168.369996 76.53,169.11 L76.53,170.31 L73.47,170.31 L73.47,169.29 C73.47,168.689997 73.3000017,168.170002 72.96,167.73 C72.6199983,167.289998 72.1600029,167.07 71.58,167.07 C70.8199962,167.07 70.3150013,167.304998 70.065,167.775 C69.8149988,168.245002 69.69,168.839996 69.69,169.56 L69.69,180.48 C69.69,181.100003 69.8249987,181.619998 70.095,182.04 C70.3650014,182.460002 70.8499965,182.67 71.55,182.67 C71.750001,182.67 71.9649989,182.635 72.195,182.565 C72.4250012,182.495 72.639999,182.380001 72.84,182.22 C73.0200009,182.059999 73.1699994,181.840001 73.29,181.56 C73.4100006,181.279999 73.47,180.930002 73.47,180.51 L73.47,179.46 L76.53,179.46 Z M79.51,185.55 L79.51,164.19 L82.57,164.19 L82.57,185.55 L79.51,185.55 Z M80.09,163.23 L82.79,159 L86.03,159 L82.07,163.23 L80.09,163.23 Z M92.12,178.08 L90.62,170.34 L90.56,170.34 L89.06,178.08 L92.12,178.08 Z M84.56,185.55 L89.33,164.19 L91.88,164.19 L96.65,185.55 L93.59,185.55 L92.69,180.96 L88.52,180.96 L87.62,185.55 L84.56,185.55 Z" id="POLICÃA" fill="#3A413D"></path>
            </g>
        </g>
    </g>
</svg>