<svg width="314" height="360" viewBox="0 0 314 360" fill="none" xmlns="http://www.w3.org/2000/svg">
<circle cx="133" cy="133" r="126" stroke="#E30027" stroke-width="14" stroke-dasharray="1 7"/>
<g filter="url(#filter0_d)">
<circle cx="133" cy="133" r="103" fill="#FFFCF7"/>
</g>
<path fill-rule="evenodd" clip-rule="evenodd" d="M148.055 102.867H117.945C110.804 102.867 104.733 108.081 103.653 115.139L96.1325 164.313H169.867L162.347 115.139C161.267 108.081 155.196 102.867 148.055 102.867Z" fill="#E30027"/>
<path fill-rule="evenodd" clip-rule="evenodd" d="M157.508 106.404C159.644 108.249 161.242 110.718 162.01 113.559L169.868 164.331H96.1326L157.508 106.404Z" fill="#CC012C"/>
<path fill-rule="evenodd" clip-rule="evenodd" d="M96.8554 164.313H169.145C173.935 164.313 177.819 168.197 177.819 172.988V183.831H88.1807V172.988C88.1807 168.197 92.0645 164.313 96.8554 164.313Z" fill="#3A413D"/>
<path fill-rule="evenodd" clip-rule="evenodd" d="M96.8554 162.145H169.145C170.742 162.145 172.036 163.439 172.036 165.036H93.9639C93.9639 163.439 95.2585 162.145 96.8554 162.145Z" fill="#5E6662"/>
<path fill-rule="evenodd" clip-rule="evenodd" d="M111.808 120.94C110.737 120.94 109.867 120.07 109.867 118.999C109.867 113.292 114.509 108.651 120.216 108.651C121.287 108.651 122.157 109.52 122.157 110.591C122.157 111.662 121.287 112.531 120.216 112.531C116.648 112.531 113.748 115.434 113.748 118.999C113.748 120.07 112.879 120.94 111.808 120.94Z" fill="#FF2755"/>
<path fill-rule="evenodd" clip-rule="evenodd" d="M132.639 81.1807C131.242 81.1807 130.108 80.1606 130.108 78.9036V68.2771C130.108 67.0201 131.242 66 132.639 66C134.035 66 135.169 67.0201 135.169 68.2771V78.9036C135.169 80.1606 134.035 81.1807 132.639 81.1807Z" fill="#CC012C"/>
<path fill-rule="evenodd" clip-rule="evenodd" d="M177.819 116.241C177.819 114.844 178.839 113.711 180.096 113.711H190.723C191.98 113.711 193 114.844 193 116.241C193 117.638 191.98 118.771 190.723 118.771H180.096C178.839 118.771 177.819 117.638 177.819 116.241Z" fill="#CC012C"/>
<path fill-rule="evenodd" clip-rule="evenodd" d="M72.9999 116.241C72.9999 114.844 74.0201 113.711 75.2771 113.711H85.9036C87.1605 113.711 88.1807 114.844 88.1807 116.241C88.1807 117.638 87.1605 118.771 85.9036 118.771H75.2771C74.0201 118.771 72.9999 117.638 72.9999 116.241Z" fill="#CC012C"/>
<path fill-rule="evenodd" clip-rule="evenodd" d="M165.679 90.5782C165.085 90.5782 164.492 90.3526 164.041 89.8982C163.135 88.9925 163.135 87.5243 164.041 86.6186L171.691 78.9683C172.597 78.0626 174.065 78.0626 174.971 78.9683C175.877 79.874 175.877 81.3422 174.971 82.2479L167.317 89.8982C166.866 90.3526 166.272 90.5782 165.679 90.5782Z" fill="#CC012C"/>
<path fill-rule="evenodd" clip-rule="evenodd" d="M99.5974 90.5782C99.0037 90.5782 98.4101 90.3526 97.9586 89.8982L90.3059 82.2479C89.4 81.3422 89.4 79.874 90.3059 78.9683C91.2119 78.0626 92.6806 78.0626 93.5865 78.9683L101.236 86.6217C102.142 87.5274 102.142 88.9956 101.236 89.9013C100.785 90.3526 100.191 90.5782 99.5974 90.5782Z" fill="#CC012C"/>
<path fill-rule="evenodd" clip-rule="evenodd" d="M148.055 102.867H117.945C110.804 102.867 104.733 108.081 103.653 115.139L96.1325 164.313H169.867L162.347 115.139C161.267 108.081 155.196 102.867 148.055 102.867Z" fill="#E30027"/>
<path fill-rule="evenodd" clip-rule="evenodd" d="M157.508 106.404C159.644 108.249 161.242 110.718 162.01 113.559L169.867 164.331L95.8955 163.092C95.8955 163.092 141.643 151.389 157.508 106.404Z" fill="#CC012C"/>
<path fill-rule="evenodd" clip-rule="evenodd" d="M96.8554 164.313H169.145C173.935 164.313 177.819 168.197 177.819 172.988V183.831H88.1807V172.988C88.1807 168.197 92.0645 164.313 96.8554 164.313Z" fill="#3A413D"/>
<path fill-rule="evenodd" clip-rule="evenodd" d="M96.8554 162.145H169.145C170.742 162.145 172.036 163.439 172.036 165.036H93.9639C93.9639 163.439 95.2585 162.145 96.8554 162.145Z" fill="#5E6662"/>
<path fill-rule="evenodd" clip-rule="evenodd" d="M111.808 120.94C110.737 120.94 109.867 120.07 109.867 118.999C109.867 113.292 114.509 108.651 120.216 108.651C121.287 108.651 122.157 109.52 122.157 110.591C122.157 111.662 121.287 112.531 120.216 112.531C116.648 112.531 113.748 115.434 113.748 118.999C113.748 120.07 112.879 120.94 111.808 120.94Z" fill="#FF2755"/>
<path fill-rule="evenodd" clip-rule="evenodd" d="M132.639 81.1807C131.242 81.1807 130.108 80.1606 130.108 78.9036V68.2771C130.108 67.0201 131.242 66 132.639 66C134.035 66 135.169 67.0201 135.169 68.2771V78.9036C135.169 80.1606 134.035 81.1807 132.639 81.1807Z" fill="#CC012C"/>
<path fill-rule="evenodd" clip-rule="evenodd" d="M177.819 116.241C177.819 114.844 178.839 113.711 180.096 113.711H190.723C191.98 113.711 193 114.844 193 116.241C193 117.638 191.98 118.771 190.723 118.771H180.096C178.839 118.771 177.819 117.638 177.819 116.241Z" fill="#CC012C"/>
<path fill-rule="evenodd" clip-rule="evenodd" d="M72.9999 116.241C72.9999 114.844 74.0201 113.711 75.2771 113.711H85.9036C87.1605 113.711 88.1807 114.844 88.1807 116.241C88.1807 117.638 87.1605 118.771 85.9036 118.771H75.2771C74.0201 118.771 72.9999 117.638 72.9999 116.241Z" fill="#CC012C"/>
<path fill-rule="evenodd" clip-rule="evenodd" d="M165.679 90.5782C165.085 90.5782 164.492 90.3526 164.041 89.8982C163.135 88.9925 163.135 87.5243 164.041 86.6186L171.691 78.9683C172.597 78.0626 174.065 78.0626 174.971 78.9683C175.877 79.874 175.877 81.3422 174.971 82.2479L167.317 89.8982C166.866 90.3526 166.272 90.5782 165.679 90.5782Z" fill="#CC012C"/>
<path fill-rule="evenodd" clip-rule="evenodd" d="M99.5974 90.5782C99.0037 90.5782 98.4101 90.3526 97.9586 89.8982L90.3059 82.2479C89.4 81.3422 89.4 79.874 90.3059 78.9683C91.2119 78.0626 92.6806 78.0626 93.5865 78.9683L101.236 86.6217C102.142 87.5274 102.142 88.9956 101.236 89.9013C100.785 90.3526 100.191 90.5782 99.5974 90.5782Z" fill="#CC012C"/>
<path fill-rule="evenodd" clip-rule="evenodd" d="M179.049 165.979C192.595 147.808 191.737 122.726 176.985 105.595C162.235 88.4634 137.531 83.8576 117.505 94.5056C97.4823 105.152 87.4866 128.208 93.439 150.018C99.3942 171.826 119.708 186.562 142.348 185.493L179.049 165.979Z" fill="black" fill-opacity="0.309726"/>
<path fill-rule="evenodd" clip-rule="evenodd" d="M254.408 168.347L284.823 225.549C284.823 225.549 295.179 245.025 288.786 262.887C288.094 264.97 288.305 267.245 289.37 269.157L295.268 280.251C297.376 284.243 295.847 289.198 291.845 291.342L233.716 322.25C229.701 324.369 224.738 322.866 222.607 318.885L221.896 317.548C218.822 311.753 213.525 307.448 207.208 305.614C196.583 302.549 179.512 296.561 168.564 287.365C151.691 273.16 123.709 255.592 112.601 252.229C101.492 248.865 104.916 237.775 112.182 233.911C119.448 230.048 141.665 236.775 154.695 243.753C158.863 246.012 163.277 247.786 167.852 249.04C170.55 249.75 173.431 249.041 175.495 247.154C177.559 245.268 178.52 242.468 178.046 239.726C177.061 234.536 175.239 229.539 172.652 224.935L128.461 141.824C125.996 137.242 126.739 131.59 130.309 127.77C131.236 126.716 132.35 125.841 133.595 125.188C139.615 121.987 147.076 124.246 150.259 130.234L173.315 173.596C170.849 169.013 171.593 163.362 175.163 159.542C176.092 158.487 177.205 157.611 178.451 156.96C184.469 153.76 191.93 156.019 195.113 162.006L200.877 172.845C199.349 169.971 199.034 166.602 200.001 163.486C200.528 161.731 201.46 160.123 202.725 158.793C203.654 157.738 204.768 156.862 206.013 156.21C212.033 153.01 219.494 155.269 222.676 161.254L232.283 179.322C230.755 176.448 230.439 173.08 231.408 169.963C231.933 168.209 232.867 166.6 234.131 165.269C235.272 163.998 236.672 162.985 238.237 162.299C244.403 159.815 251.43 162.442 254.408 168.347Z" fill="#E7BC9D"/>
<path fill-rule="evenodd" clip-rule="evenodd" d="M133.475 124.973C132.233 125.625 131.122 126.499 130.199 127.554C126.642 131.378 125.918 137.05 128.397 141.658L172.837 225.238C175.437 229.868 177.274 234.89 178.276 240.105C178.6 242.092 178.196 244.128 177.139 245.837C179.614 245.944 182 244.923 183.63 243.06C185.262 241.195 185.958 238.691 185.527 236.249C184.525 231.035 182.688 226.013 180.088 221.382L135.648 137.802C133.169 133.195 133.893 127.522 137.449 123.699C136.057 123.875 134.711 124.308 133.475 124.973Z" fill="#D79A81"/>
<path fill-rule="evenodd" clip-rule="evenodd" d="M175.138 159.596C171.581 163.419 170.856 169.09 173.336 173.699L190.725 206.404C191.793 208.411 194.281 209.174 196.283 208.109C198.284 207.045 199.043 204.556 197.976 202.549L180.587 169.844C178.108 165.234 178.832 159.564 182.389 155.74C179.586 156.112 177.013 157.48 175.138 159.596Z" fill="#D79A81"/>
<path fill-rule="evenodd" clip-rule="evenodd" d="M202.687 158.932C201.427 160.263 200.5 161.874 199.979 163.634C199.022 166.76 199.348 170.143 200.884 173.034L212.478 194.838C213.545 196.845 216.034 197.608 218.036 196.543C220.038 195.478 220.796 192.99 219.729 190.983L208.135 169.178C205.658 164.57 206.383 158.899 209.94 155.076C207.137 155.447 204.564 156.816 202.687 158.932Z" fill="#D79A81"/>
<path fill-rule="evenodd" clip-rule="evenodd" d="M237.379 162.953C236.138 163.603 235.025 164.478 234.101 165.533C232.842 166.866 231.914 168.478 231.394 170.237C230.436 173.363 230.763 176.746 232.299 179.636L236.164 186.904C237.231 188.911 239.718 189.676 241.721 188.611C243.723 187.547 244.482 185.056 243.415 183.049L239.55 175.781C237.071 171.174 237.797 165.503 241.352 161.678C239.96 161.854 238.613 162.286 237.379 162.953Z" fill="#D79A81"/>
<defs>
<filter id="filter0_d" x="26" y="27" width="214" height="214" filterUnits="userSpaceOnUse" color-interpolation-filters="sRGB">
<feFlood flood-opacity="0" result="BackgroundImageFix"/>
<feColorMatrix in="SourceAlpha" type="matrix" values="0 0 0 0 0 0 0 0 0 0 0 0 0 0 0 0 0 0 127 0" result="hardAlpha"/>
<feOffset dy="1"/>
<feGaussianBlur stdDeviation="2"/>
<feColorMatrix type="matrix" values="0 0 0 0 0.781941 0 0 0 0 0.73425 0 0 0 0 0.654764 0 0 0 1 0"/>
<feBlend mode="normal" in2="BackgroundImageFix" result="effect1_dropShadow"/>
<feBlend mode="normal" in="SourceGraphic" in2="effect1_dropShadow" result="shape"/>
</filter>
</defs>
</svg>
